<svg fill="none" height="24" viewBox="0 0 24 24" width="20" xmlns="http://www.w3.org/2000/svg" xmlns:xlink="http://www.w3.org/1999/xlink"><filter id="a" color-interpolation-filters="sRGB" filterUnits="userSpaceOnUse" height="24.1213" width="26.1213" x="-.5" y=".378662"><feFlood flood-opacity="0" result="BackgroundImageFix"/><feBlend in="SourceGraphic" in2="BackgroundImageFix" mode="normal" result="shape"/><feColorMatrix in="SourceAlpha" result="hardAlpha" type="matrix" values="0 0 0 0 0 0 0 0 0 0 0 0 0 0 0 0 0 0 127 0"/><feOffset/><feGaussianBlur stdDeviation=".25"/><feComposite in2="hardAlpha" k2="-1" k3="1" operator="arithmetic"/><feColorMatrix type="matrix" values="0 0 0 0 1 0 0 0 0 1 0 0 0 0 1 0 0 0 0.3 0"/><feBlend in2="shape" mode="normal" result="effect1_innerShadow_19_592"/><feColorMatrix in="SourceAlpha" result="hardAlpha" type="matrix" values="0 0 0 0 0 0 0 0 0 0 0 0 0 0 0 0 0 0 127 0"/><feOffset dx="-1" dy="1"/><feGaussianBlur stdDeviation="1"/><feComposite in2="hardAlpha" k2="-1" k3="1" operator="arithmetic"/><feColorMatrix type="matrix" values="0 0 0 0 1 0 0 0 0 1 0 0 0 0 1 0 0 0 0.25 0"/><feBlend in2="effect1_innerShadow_19_592" mode="normal" result="effect2_innerShadow_19_592"/><feColorMatrix in="SourceAlpha" result="hardAlpha" type="matrix" values="0 0 0 0 0 0 0 0 0 0 0 0 0 0 0 0 0 0 127 0"/><feOffset dx="2"/><feGaussianBlur stdDeviation="2"/><feComposite in2="hardAlpha" k2="-1" k3="1" operator="arithmetic"/><feColorMatrix type="matrix" values="0 0 0 0 0.220833 0 0 0 0 0.220833 0 0 0 0 0.220833 0 0 0 0.28 0"/><feBlend in2="effect2_innerShadow_19_592" mode="normal" result="effect3_innerShadow_19_592"/><feColorMatrix in="SourceAlpha" result="hardAlpha" type="matrix" values="0 0 0 0 0 0 0 0 0 0 0 0 0 0 0 0 0 0 127 0"/><feOffset dx="1" dy="1"/><feGaussianBlur stdDeviation="1.5"/><feComposite in2="hardAlpha" k2="-1" k3="1" operator="arithmetic"/><feColorMatrix type="matrix" values="0 0 0 0 0.2 0 0 0 0 0.199167 0 0 0 0 0.199217 0 0 0 0.1 0"/><feBlend in2="effect3_innerShadow_19_592" mode="normal" result="effect4_innerShadow_19_592"/></filter><pattern id="b" height=".708204" patternContentUnits="objectBoundingBox" width=".944272"/><clipPath id="c"><path d="m0 0h24v24h-24z"/></clipPath><g clip-path="url(#c)"><g filter="url(#a)" stroke-linecap="round" stroke-linejoin="round" stroke-width="3"><path d="m11 3.99998h-7c-.53043 0-1.03914.21072-1.41421.58579-.37508.37507-.58579.88378-.58579 1.41421v14.00002c0 .5304.21071 1.0391.58579 1.4142.37507.3751.88378.5858 1.41421.5858h14c.5304 0 1.0391-.2107 1.4142-.5858s.5858-.8838.5858-1.4142v-7m-1.5-10.50002c.3978-.39782.9374-.62132 1.5-.62132s1.1022.2235 1.5.62132c.3978.39783.6213.93739.6213 1.5s-.2235 1.10218-.6213 1.5l-9.5 9.50002-4 1 1-4z" stroke="#000"/><path d="m11 3.99998h-7c-.53043 0-1.03914.21072-1.41421.58579-.37508.37507-.58579.88378-.58579 1.41421v14.00002c0 .5304.21071 1.0391.58579 1.4142.37507.3751.88378.5858 1.41421.5858h14c.5304 0 1.0391-.2107 1.4142-.5858s.5858-.8838.5858-1.4142v-7m-1.5-10.50002c.3978-.39782.9374-.62132 1.5-.62132s1.1022.2235 1.5.62132c.3978.39783.6213.93739.6213 1.5s-.2235 1.10218-.6213 1.5l-9.5 9.50002-4 1 1-4z" stroke="url(#b)" stroke-opacity=".05"/></g></g></svg>